<svg xmlns="http://www.w3.org/2000/svg" width="200.89" height="322.936" viewBox="0 0 200.89 322.936">
  <path id="_186409_arrow_right_next_icon" data-name="186409_arrow_right_next_icon" d="M202.172,142.242,72.845,12.915a30.584,30.584,0,0,0-43.1,0L18.948,23.708a30.568,30.568,0,0,0,0,43.091l98.675,98.7L18.934,264.19a30.568,30.568,0,0,0,0,43.091l10.793,10.793a30.56,30.56,0,0,0,43.1,0l129.327-129.34a30.231,30.231,0,0,0,8.729-23.245A30.206,30.206,0,0,0,202.172,142.242Z" transform="translate(-10.05 -4.032)" fill="#212121"/>
</svg>
