<svg xmlns="http://www.w3.org/2000/svg" width="243.405" height="243.405" viewBox="0 0 243.405 243.405">
  <path id="_2006960_github_media_social_icon" data-name="2006960_github_media_social_icon" d="M203.69.5H40.715A40.2,40.2,0,0,0,.5,40.715V203.69A40.2,40.2,0,0,0,40.715,243.9H203.69A40.2,40.2,0,0,0,243.9,203.69V40.715A40.2,40.2,0,0,0,203.69.5ZM151.834,214.273c-5.291,1.058-7.408,0-9.525-2.117a9.607,9.607,0,0,1-3.175-7.408v-24.34c0-8.466-3.175-11.641-4.233-12.7a4.654,4.654,0,0,1-1.058-5.291c1.058-2.117,2.117-3.175,4.233-3.175,19.049-2.117,35.982-8.466,35.982-39.156,0-8.466-2.117-14.816-7.408-20.107-2.117-2.117-2.117-4.233-2.117-6.35,1.058-2.117,3.175-8.466,0-16.933-3.175,0-8.466,2.117-17.991,8.466-1.058,1.058-3.175,1.058-4.233,1.058a72.139,72.139,0,0,0-42.331,0c-1.058,0-3.175,0-4.233-1.058-7.408-5.291-13.758-7.408-16.933-7.408-2.117,8.466,0,14.816,0,16.933a3.219,3.219,0,0,1,0,4.233c-5.291,5.291-7.408,12.7-7.408,20.107,0,30.69,17.991,37.04,35.982,39.156,3.175,0,5.291,3.175,4.233,5.291,0,3.175-3.175,4.233-5.291,4.233-19.049-2.117-45.506-9.525-45.506-48.681a43.06,43.06,0,0,1,8.466-25.4c-2.117-4.233-3.175-12.7,1.058-23.282l3.175-3.175c2.117-1.058,10.583-2.117,26.457,8.466,6.35-2.117,13.758-2.117,21.166-2.117a130.278,130.278,0,0,1,21.166,2.117c16.933-10.583,25.4-9.525,26.457-8.466q1.587,0,3.175,3.175a41.021,41.021,0,0,1,2.117,24.34,43.06,43.06,0,0,1,8.466,25.4c0,33.865-19.049,44.448-37.04,47.623a45.48,45.48,0,0,1,2.117,12.7V203.69c33.865-11.641,56.089-43.39,56.089-79.371a83.109,83.109,0,0,0-83.6-83.6c-46.564,0-83.6,38.1-83.6,83.6,0,35.982,23.282,68.788,57.147,79.371-1.058-1.058-1.058-11.641-1.058-19.049H88.337c-15.874,0-24.34-10.583-26.457-16.933-1.058-3.175,1.058-5.291,3.175-6.35,3.175-1.058,5.291,1.058,6.35,3.175,0,1.058,5.291,12.7,24.34,8.466,3.175-1.058,5.291,1.058,6.35,4.233V203.69A9.607,9.607,0,0,1,98.92,211.1c-1.058,1.058-3.175,2.117-6.35,2.117H90.454C51.3,200.515,25.9,164.534,25.9,123.261a94.187,94.187,0,0,1,188.374,0C216.39,165.592,189.933,200.515,151.834,214.273Z" transform="translate(-0.5 -0.5)" fill="#212121"/>
</svg>
