<svg xmlns="http://www.w3.org/2000/svg" width="429.638" height="386.674" viewBox="0 0 429.638 386.674">
  <path id="_216242_home_icon" data-name="216242_home_icon" d="M216.819,3S83.932,117.713,9.669,179.839A22.373,22.373,0,0,0,2,196.337a21.462,21.462,0,0,0,21.482,21.482H66.446V368.192a21.462,21.462,0,0,0,21.482,21.482h64.446a21.476,21.476,0,0,0,21.482-21.482V282.264h85.928v85.928a21.476,21.476,0,0,0,21.482,21.482H345.71a21.462,21.462,0,0,0,21.482-21.482V217.819h42.964a21.462,21.462,0,0,0,21.482-21.482,21.048,21.048,0,0,0-8.228-16.5C349.663,117.713,216.819,3,216.819,3Z" transform="translate(-2 -3)" fill="#212121"/>
</svg>
