<svg xmlns="http://www.w3.org/2000/svg" width="448" height="384" viewBox="0 0 448 384">
  <g id="image-file" transform="translate(-32 -64)">
    <path id="Trazado_1" data-name="Trazado 1" d="M368,224a48,48,0,1,0-48-48A48.012,48.012,0,0,0,368,224Z" fill="#757575"/>
    <path id="Trazado_2" data-name="Trazado 2" d="M452,64H60A28.083,28.083,0,0,0,32,92.3V419.7A28.083,28.083,0,0,0,60,448H452a28.083,28.083,0,0,0,28-28.3V92.3A28.083,28.083,0,0,0,452,64ZM348.9,261.7a17.171,17.171,0,0,0-12.8-6.2c-5.1,0-8.7,2.4-12.8,5.7L304.6,277c-3.9,2.8-7,4.7-11.5,4.7a16.546,16.546,0,0,1-11-4.1c-1-.9-2.8-2.6-4.3-4.1L224,215.3a22.052,22.052,0,0,0-16.7-7.5,22.712,22.712,0,0,0-16.8,7.8L64,368.2V107.7C65,100.9,70.3,96,77.1,96H434.8a12.693,12.693,0,0,1,12.9,12l.3,260.4Z" fill="#757575"/>
  </g>
</svg>
