<svg xmlns="http://www.w3.org/2000/svg" width="327" height="327" viewBox="0 0 327 327">
  <path id="_5282544_camera_instagram_social_media_social_network_instagram_logo_icon" data-name="5282544_camera_instagram_social media_social network_instagram logo_icon" d="M287.049,0A39.97,39.97,0,0,1,327,39.951v247.1A39.971,39.971,0,0,1,287.049,327H39.951A39.971,39.971,0,0,1,0,287.049V39.951A39.97,39.97,0,0,1,39.951,0h247.1ZM163.5,51.732c-30.354,0-34.161.128-46.081.673-11.9.543-20.021,2.432-27.131,5.2A57.15,57.15,0,0,0,57.6,90.288c-2.763,7.11-4.652,15.234-5.2,27.131-.544,11.921-.672,15.727-.672,46.081s.128,34.161.672,46.081c.544,11.9,2.433,20.021,5.2,27.131A57.153,57.153,0,0,0,90.288,269.4c7.11,2.763,15.234,4.652,27.131,5.195,11.921.544,15.727.673,46.081.673s34.161-.128,46.081-.673c11.9-.543,20.021-2.432,27.131-5.195A57.154,57.154,0,0,0,269.4,236.712c2.763-7.11,4.652-15.234,5.195-27.131.544-11.921.673-15.727.673-46.081s-.128-34.161-.673-46.081c-.543-11.9-2.432-20.021-5.195-27.131A57.15,57.15,0,0,0,236.712,57.6c-7.11-2.764-15.234-4.653-27.131-5.2-11.921-.544-15.727-.673-46.081-.673Zm0,20.139c29.843,0,33.378.114,45.164.651,10.9.5,16.815,2.318,20.754,3.848A37.014,37.014,0,0,1,250.63,97.583c1.53,3.939,3.351,9.857,3.848,20.754.538,11.785.652,15.32.652,45.164s-.114,33.378-.652,45.164c-.5,10.9-2.318,16.815-3.848,20.754a37.014,37.014,0,0,1-21.212,21.212c-3.939,1.53-9.857,3.351-20.754,3.848-11.784.538-15.319.652-45.164.652s-33.38-.114-45.164-.652c-10.9-.5-16.815-2.318-20.754-3.848A37.014,37.014,0,0,1,76.37,229.417c-1.53-3.939-3.351-9.857-3.849-20.754-.538-11.785-.651-15.32-.651-45.164s.114-33.378.651-45.164c.5-10.9,2.318-16.815,3.849-20.754A37.014,37.014,0,0,1,97.583,76.37c3.939-1.53,9.857-3.35,20.754-3.848,11.785-.538,15.32-.651,45.164-.651Zm0,34.235A57.394,57.394,0,1,0,220.894,163.5,57.394,57.394,0,0,0,163.5,106.106Zm0,94.65A37.256,37.256,0,1,1,200.756,163.5,37.255,37.255,0,0,1,163.5,200.756Zm73.074-96.917a13.412,13.412,0,1,1-13.413-13.412,13.412,13.412,0,0,1,13.413,13.412Z" transform="translate(0 0)" fill="#212121" fill-rule="evenodd"/>
</svg>
