<svg xmlns="http://www.w3.org/2000/svg" width="243.532" height="243.532" viewBox="0 0 243.532 243.532">
  <path id="_5282542_linkedin_network_social_network_linkedin_logo_icon" data-name="5282542_linkedin_network_social network_linkedin logo_icon" d="M213.778,0a29.768,29.768,0,0,1,29.754,29.754V213.778a29.768,29.768,0,0,1-29.754,29.754H29.754A29.768,29.768,0,0,1,0,213.778V29.754A29.768,29.768,0,0,1,29.754,0H213.778ZM76.323,201.331V93.969H40.63V201.331Zm128.681,0V139.764c0-32.978-17.608-48.319-41.087-48.319-18.933,0-27.413,10.412-32.162,17.725v-15.2H96.072c.473,10.075,0,107.362,0,107.362h35.683V141.373c0-3.21.231-6.417,1.177-8.712,2.575-6.409,8.451-13.049,18.31-13.049,12.907,0,18.078,9.849,18.078,24.276v57.443H205ZM58.718,42.2c-12.212,0-20.19,8.028-20.19,18.551,0,10.3,7.736,18.551,19.718,18.551h.23c12.445,0,20.192-8.25,20.192-18.551-.231-10.508-7.725-18.528-19.95-18.551Z" transform="translate(0 0)" fill="#212121" fill-rule="evenodd"/>
</svg>
