<svg id="g8564" xmlns="http://www.w3.org/2000/svg" width="654.44" height="612.033" viewBox="0 0 654.44 612.033">
  <g id="g1402">
    <path id="path1404" d="M140.865,32.943c-41.335,0-64.571,21.371-64.571,65.036V548.1c0,40.843,20.891,62.228,62.192,62.228H590.51c41.3,0,62.226-20.32,62.226-62.228V97.979c0-42.6-20.923-65.036-63.523-65.036C589.213,32.943,140.722,32.8,140.865,32.943Z" fill="#212121" stroke="#fff" stroke-width="3.408"/>
  </g>
  <g id="g1406">
    <path id="path1408" d="M569.372,461.472V160.658H160.658V461.472Z" fill="none" stroke="#fff" stroke-width="30.655"/>
    <path id="path1410" fill="none" stroke="#fff" stroke-width="30.655"/>
    <path id="path1412" d="M164.46,164.49,340.78,343.158c13.069,13.17,36.848,13.014,49.641.12l176.2-177.35" fill="none" stroke="#fff" stroke-width="30.655"/>
    <path id="path1414" d="M170.514,451.566l135.1-138.106" fill="none" stroke="#fff" stroke-width="30.655"/>
    <path id="path1416" d="M557.966,449.974l-131.452-134.6" fill="none" stroke="#fff" stroke-width="30.655"/>
  </g>
</svg>
