<svg xmlns="http://www.w3.org/2000/svg" width="472.592" height="470.241" viewBox="0 0 472.592 470.241">
  <path id="_4691213_python_icon" data-name="4691213_python_icon" d="M280.381,3.527l17.634,3.919,14.3,5.094,11.56,5.878,8.817,6.27,6.662,6.662,4.9,6.662,3.135,6.466,1.959,5.878.784,5.094.392,3.919-.2,2.547V166.544l-.98,12.344L346.8,189.664l-4.115,9.013-5.094,7.445-5.878,6.074-6.466,4.9-6.858,3.723-6.858,2.743-6.466,1.959-5.878,1.372-5.094.784-4.115.392H173.009l-13.519.98-11.56,2.743-9.8,4.311-8.033,5.29-6.466,6.27-5.29,6.858-3.919,7.054-2.939,7.25-1.959,6.858-1.372,6.27-.784,5.29-.392,4.115v59.956H63.287l-4.115-.588-5.486-1.372L47.416,347l-6.858-3.527L33.5,338.378l-7.054-7.054-6.858-9.013-6.27-11.56-5.486-14.3L3.723,279.206.98,258.633,0,234.533l1.176-23.9,3.135-20.377,4.7-17.046,6.27-13.911,7.054-11.168,7.837-8.621,8.229-6.466,8.229-4.7L54.47,125.2l7.054-1.959,6.27-.98,4.7-.2H75.63l1.176.2H236.688V106H122.263l-.2-53.882-.392-7.25.98-6.662,2.155-6.074,3.331-5.486,4.9-5.094,6.074-4.506,7.445-3.919L155.18,9.6l9.993-2.939,11.364-2.351,12.54-1.959,13.911-1.176L218.074.392,234.533,0l24.884.98,20.965,2.547ZM156.943,42.322l-4.506,6.466-1.567,8.033,1.567,8.033,4.506,6.662,6.466,4.311,8.033,1.763,8.033-1.763,6.466-4.311,4.506-6.662,1.567-8.033-1.567-8.033-4.506-6.466-6.466-4.311-8.033-1.763-8.033,1.763ZM413.42,119.715l5.486,1.176,6.27,2.351,6.858,3.527,7.054,5.29,7.054,6.858L453,148.126l6.27,11.56,5.486,14.3,4.115,17.242,2.743,20.377.98,24.1-1.176,24.1-3.135,20.377-4.7,16.85-6.27,13.911-7.054,11.168-7.837,8.817-8.229,6.466-8.229,4.7-7.837,3.135L411.069,347l-6.27.98-4.7.392-3.135-.2H235.9v16.067H350.33l.2,54.078.392,7.054-.98,6.662-2.155,6.074-3.331,5.682-4.9,4.9-6.074,4.7-7.445,3.919-8.621,3.331-9.993,2.939-11.364,2.547-12.54,1.763L269.6,469.261l-15.087.784-16.458.2-24.884-.784-20.965-2.743L174.577,462.8l-14.3-4.9-11.56-5.878-8.817-6.466-6.662-6.662-4.9-6.662-3.135-6.466-1.959-5.878-.784-4.9-.392-3.919.2-2.547V303.893l.98-12.54,2.547-10.58,4.115-9.013L135,264.315l5.878-6.27,6.466-4.7,6.858-3.919,6.858-2.743,6.466-1.959,5.878-1.176,5.094-.784,4.115-.392,2.547-.2H299.583l13.519-.98,11.56-2.743,9.8-4.115,8.033-5.486,6.466-6.27,5.29-6.858,3.919-7.054,2.939-7.054,1.959-6.858,1.372-6.27.784-5.486.392-4.115V118.932h40.95l2.743.2,4.115.588ZM286.651,398.921l-4.506,6.466-1.567,8.033,1.567,8.033,4.506,6.466,6.466,4.506,8.033,1.567,8.033-1.567,6.466-4.506,4.506-6.466,1.567-8.033-1.567-8.033-4.506-6.466-6.466-4.506-8.033-1.567-8.033,1.567Z" fill="#212121"/>
</svg>
