<svg xmlns="http://www.w3.org/2000/svg" width="352" height="384.1" viewBox="0 0 352 384.1">
  <g id="_211923_windows_social_icon" data-name="211923_windows_social_icon" transform="translate(-80 -64)">
    <path id="Trazado_1" data-name="Trazado 1" d="M202.1,266.7H93.4A13.531,13.531,0,0,0,80,280.4v89a13.43,13.43,0,0,0,10.7,13.2l105.4,21.1,6.9,1.2a13.565,13.565,0,0,0,12.7-13.5v-111a13.636,13.636,0,0,0-13.6-13.7Z" fill="#212121"/>
    <path id="Trazado_2" data-name="Trazado 2" d="M418.4,266.7H250.2a13.531,13.531,0,0,0-13.4,13.7V401.1a13.4,13.4,0,0,0,7.9,12.2l.2.2,5.3,1.1h.3l164.7,32.9a2.117,2.117,0,0,0,.7.3.367.367,0,0,0,.3-.1,3.948,3.948,0,0,0,2.1.4,13.593,13.593,0,0,0,13.6-13.5V280.4a13.489,13.489,0,0,0-13.5-13.7Z" fill="#212121"/>
    <path id="Trazado_3" data-name="Trazado 3" d="M418.4,64a3.948,3.948,0,0,0-2.1.4.367.367,0,0,0-.3-.1,1.08,1.08,0,0,0-.7.3L250.5,97.4h-.3l-5.1,1.1a.619.619,0,0,0-.4.2,13.693,13.693,0,0,0-7.9,12.4V231.6a13.531,13.531,0,0,0,13.4,13.7H418.4A13.7,13.7,0,0,0,432,231.6V77.5A13.659,13.659,0,0,0,418.4,64Z" fill="#212121"/>
    <path id="Trazado_4" data-name="Trazado 4" d="M203,107l-6.9,1.2L90.7,129.4A13.43,13.43,0,0,0,80,142.6v89a13.531,13.531,0,0,0,13.4,13.7H202.2a13.7,13.7,0,0,0,13.6-13.7V120.5A13.723,13.723,0,0,0,203,107Z" fill="#212121"/>
  </g>
</svg>
